<?xml version="1.0" encoding="utf-8"?>
<!-- Generator: Adobe Illustrator 19.2.1, SVG Export Plug-In . SVG Version: 6.00 Build 0)  -->
<svg version="1.1" id="Ebene_1" xmlns="http://www.w3.org/2000/svg" xmlns:xlink="http://www.w3.org/1999/xlink" x="0px" y="0px"
	 viewBox="0 0 76.9 97.3" style="enable-background:new 0 0 76.9 97.3;" xml:space="preserve">
<style type="text/css">
	.st0{fill:#6FB2E2;}
	.st1{fill:#2665AE;}
	.st2{fill:#8BC04D;}
</style>
<g id="blue_300">
	<path class="st0" d="M47.9,2.6c0,0-2.8-0.9-7.1-1.2c-2.1-0.1-4.4-0.1-7.3,0.3c-2.5,0.4-5.2,1-7.4,1.8c-2.9,1-5,2.2-5,2.2l0.6,1.4
		c0,0,2-1.2,5.3-2.3c2-0.7,4.5-1.3,7.1-1.7c3.1-0.4,6.2-0.3,8.6,0c2.9,0.4,4.9,1,4.9,1L47.9,2.6z"/>
	<path class="st0" d="M9.4,59.8l-1.3,0.8c0,0-1.6-2.3-2.8-4.9c-0.2-0.4-1.2-2.5-2-4.8C2.5,48.5,2,46,1.8,44.7
		c-0.5-3.1-0.4-5.7-0.4-6.5c0-1.9,0.2-3.9,0.5-5.7s0.7-3.5,1.2-5c1.1-3.4,2.2-5.6,2.2-5.6l1.3,0.6c0,0-1.2,2.3-2.1,5.2
		c-0.6,2.1-1.2,4.4-1.4,6.3C3,35.8,2.4,39.3,3.3,44.7c0,0.3,0.3,1.8,0.8,3.6c0.6,2.2,1.7,5,2.5,6.6C7.9,57.5,9.4,59.8,9.4,59.8z"/>
	<path class="st0" d="M24.3,13.1c0,0,3.1-1.8,6.8-2.8c4.2-1.1,7.6-0.9,7.6-0.9v1.5c0,0-3.2-0.3-7.2,0.8c-3.9,1.1-6.6,2.8-6.6,2.8
		L24.3,13.1z"/>
	<path class="st0" d="M12.6,25.2c0,0-1.9,3.3-2.7,8c-0.5,2.7-1,5.3-0.8,8.8c0.3,3.9,2.2,7.8,3.8,11c2.4,4.5,5.6,7.5,5.6,7.5l1.1-1.1
		c0,0-3.2-3.1-5.5-7.2c-1.8-3.3-3.4-7.2-3.8-10.2c-0.4-3,0.3-5.7,0.8-8.7c0.9-4.7,2.7-7.6,2.7-7.6L12.6,25.2z"/>
	<path class="st0" d="M22.1,41.3l-1.9,0.1c0,0-0.1-2.9,0.6-6c0.7-3,2.4-5.5,2.4-5.5l1.7,0.8c0,0-1.6,2.3-2.3,5.4
		C21.8,39.2,22.1,41.3,22.1,41.3z"/>
	<path class="st0" d="M38.3,21l0.1,1.8c0,0-2,0.1-4.5,0.8c-2.2,0.7-4.1,2-4.1,2L29.1,24c0,0,1.6-1.1,4.3-2
		C35.7,21.2,38.3,21,38.3,21z"/>
	<path class="st0" d="M24.6,49.3c0,0,4,6.1,11.6,7.3c8.8,1.3,14.2-4.3,14.2-4.3l0.7,1.5c0,0-4.6,5.5-14.6,4.6
		c-8.6-0.7-13.2-8.2-13.2-8.2L24.6,49.3z"/>
	<path class="st0" d="M65.4,44.3l1.4,0.3c0,0-0.3,2.1-1.6,5.3c-0.7,1.9-1.9,4.1-3.7,6.5c-1.7,2.2-4.2,4.8-6.6,6.5
		c-2.2,1.5-4,2.5-4,2.5L50.3,64c0,0,1.8-0.8,4-2.4c1.9-1.4,4.2-3.5,6.1-5.9C64.3,50.5,65.4,44.3,65.4,44.3z"/>
	<path class="st0" d="M20.5,69.9c0,0,1.3,0.8,3.1,1.6c1.9,0.8,4.3,1.7,6.4,2.2s4.3,0.8,6,0.9c2.1,0.1,3.5,0.1,3.5,0.1v1.6
		c0,0-1.9,0.1-4.1-0.1c-2.3-0.2-4.9-0.7-5.9-1c-5.3-1.3-9.7-4.1-9.7-4.1L20.5,69.9z"/>
</g>
<g id="blue_800">
	<path class="st1" d="M8.5,33l3.8,0.5c0,0-0.4,1.6-0.5,3.9c-0.1,1.7,0,3.9,0.3,5.7c0.3,1.9,0.7,3.4,1.2,4.7c0.9,2.5,2,4,2,4L12,53.5
		c0,0-0.9-1.2-1.7-3.1c-0.9-2-1.8-4.8-2-7.2c-0.2-1.6-0.2-3.5-0.2-5.4C8.2,35.2,8.5,33,8.5,33z"/>
	<path class="st1" d="M66.7,28.5c0,0-0.9-3.7-3.9-7.9C61,18,58.4,15.4,55,13.1s-6.7-3.6-9.7-4.3c-4.2-1-8.7-0.6-8.7-0.6l0.3,3.8
		c0,0,3.2-0.3,7.3,0.6c2.7,0.6,5.8,1.8,8.6,3.8c3.1,2.3,5.2,4.7,6.7,6.7c2.2,3,3.6,6.6,3.6,6.6L66.7,28.5z"/>
	<path class="st1" d="M54.9,28.1l-3.1,2.3c0,0,4.1,4.7,2.9,11.9c-1.1,6.8-6.3,10.3-6.3,10.3l2.2,3.1c0,0,6.4-3.9,7.8-13
		S54.9,28.1,54.9,28.1z"/>
	<path class="st1" d="M72.7,38.4l3.9-0.1c0,0,0.4,4.8-1.4,10.9C73.6,55,70,61.9,64.5,67c-6.3,5.8-10.1,7.2-14.4,8.6
		c-6.1,2-11.7,2-11.7,2l-0.1-3.9c0,0,4.7,0.1,10.3-1.7c4.4-1.4,9.1-3.9,13.7-8.3c5.9-5.8,8.6-12.8,9.7-18.1
		C73,41.4,72.7,38.4,72.7,38.4z"/>
	<path class="st1" d="M38.3,30.6c3.9,0,8.2,3.1,8.2,8.7s-5.1,7.9-8.2,7.9c-3.8,0-8.2-2.9-8.2-8.3S34.4,30.6,38.3,30.6z"/>
	<g>
		<g>
			<path class="st1" d="M0,97.2v-7.5h1.6v7.5H0z"/>
			<path class="st1" d="M10.7,97.2h-2l-3.3-5.7l0,0c0.1,1,0.1,1.7,0.1,2.1v3.5H4v-7.5h2l3.3,5.6l0,0c-0.1-1-0.1-1.7-0.1-2.1v-3.5
				h1.4v7.6H10.7z"/>
			<path class="st1" d="M20.4,97.2h-1.8l-1-3.9c0-0.1-0.1-0.4-0.2-0.9c-0.1-0.4-0.1-0.7-0.2-0.9c0,0.2-0.1,0.5-0.2,0.9
				s-0.1,0.7-0.2,0.9l-1,3.9H14l-1.9-7.5h1.6l1,4.1c0.2,0.8,0.3,1.4,0.4,2c0-0.2,0.1-0.5,0.1-0.9c0.1-0.4,0.1-0.7,0.2-1l1.1-4.2H18
				l1.1,4.2c0,0.2,0.1,0.5,0.2,0.9s0.1,0.7,0.2,1c0-0.3,0.1-0.6,0.2-1s0.1-0.7,0.2-1l1-4.1h1.6L20.4,97.2z"/>
			<path class="st1" d="M26.6,97.2H25V91h-2v-1.3h5.7V91h-2v6.2H26.6z"/>
		</g>
	</g>
	<g>
		<path class="st1" d="M37.8,95.2c0,0.7-0.2,1.2-0.7,1.5s-1.1,0.6-1.9,0.6c-0.9,0-1.6-0.1-2-0.3v-0.8c0.3,0.1,0.6,0.2,1,0.3
			c0.4,0.1,0.7,0.1,1.1,0.1c0.6,0,1-0.1,1.3-0.3c0.3-0.2,0.4-0.5,0.4-0.9c0-0.3-0.1-0.5-0.2-0.6c-0.1-0.2-0.3-0.3-0.5-0.5
			c-0.2-0.1-0.6-0.3-1.1-0.5c-0.7-0.2-1.2-0.5-1.5-0.9c-0.3-0.3-0.4-0.8-0.4-1.3c0-0.6,0.2-1,0.7-1.4c0.4-0.3,1-0.5,1.7-0.5
			s1.4,0.1,2.1,0.4l-0.3,0.8c-0.6-0.3-1.2-0.4-1.8-0.4c-0.5,0-0.8,0.1-1.1,0.3c-0.3,0.2-0.4,0.5-0.4,0.8s0,0.5,0.1,0.6
			c0.1,0.2,0.3,0.3,0.5,0.5c0.2,0.1,0.6,0.3,1,0.5c0.8,0.3,1.3,0.6,1.6,0.9C37.7,94.3,37.8,94.7,37.8,95.2z"/>
		<path class="st1" d="M41.2,96.6c0.2,0,0.3,0,0.4,0c0.1,0,0.3,0,0.3-0.1v0.7c-0.1,0-0.2,0.1-0.4,0.1s-0.3,0-0.5,0
			c-1.1,0-1.6-0.6-1.6-1.7v-3.3h-0.8v-0.4l0.8-0.4l0.4-1.2h0.5v1.3H42v0.7h-1.6v3.3c0,0.3,0.1,0.6,0.2,0.8
			C40.7,96.5,41,96.6,41.2,96.6z"/>
		<path class="st1" d="M46.8,97.2l-0.2-0.8l0,0c-0.3,0.4-0.6,0.6-0.8,0.7c-0.3,0.1-0.6,0.2-1,0.2c-0.6,0-1-0.1-1.3-0.4
			S43,96.2,43,95.7c0-1.1,0.9-1.7,2.7-1.8h1v-0.3c0-0.4-0.1-0.8-0.3-1s-0.5-0.3-0.9-0.3c-0.5,0-1,0.1-1.6,0.4L43.5,92
			c0.3-0.2,0.6-0.3,0.9-0.4c0.3-0.1,0.7-0.1,1-0.1c0.7,0,1.2,0.1,1.5,0.4s0.5,0.8,0.5,1.4v3.8L46.8,97.2L46.8,97.2z M44.9,96.6
			c0.5,0,0.9-0.1,1.2-0.4s0.5-0.7,0.5-1.2v-0.5h-0.9c-0.7,0-1.2,0.1-1.5,0.3s-0.4,0.5-0.4,0.9c0,0.3,0.1,0.5,0.3,0.7
			C44.3,96.5,44.5,96.6,44.9,96.6z"/>
		<path class="st1" d="M51.2,96.6c0.2,0,0.3,0,0.4,0c0.1,0,0.3,0,0.3-0.1v0.7c-0.1,0-0.2,0.1-0.4,0.1s-0.3,0-0.5,0
			c-1.1,0-1.6-0.6-1.6-1.7v-3.3h-0.8v-0.4l0.8-0.4l0.4-1.2h0.5v1.3h1.6v0.7h-1.6v3.3c0,0.3,0.1,0.6,0.2,0.8
			C50.7,96.5,50.9,96.6,51.2,96.6z"/>
		<path class="st1" d="M53.2,90.1c0-0.2,0-0.3,0.1-0.4s0.2-0.1,0.4-0.1c0.1,0,0.3,0,0.4,0.1c0.1,0.1,0.1,0.2,0.1,0.4s0,0.3-0.1,0.4
			s-0.2,0.1-0.4,0.1c-0.1,0-0.3,0-0.4-0.1S53.2,90.3,53.2,90.1z M54.1,97.2h-0.9v-5.6h0.9V97.2z"/>
		<path class="st1" d="M59.8,95.7c0,0.5-0.2,0.9-0.6,1.2c-0.4,0.3-0.9,0.4-1.6,0.4c-0.7,0-1.3-0.1-1.7-0.4v-0.8
			c0.3,0.1,0.6,0.2,0.9,0.3c0.3,0.1,0.6,0.1,0.9,0.1c0.4,0,0.8-0.1,1-0.2s0.4-0.4,0.4-0.6s-0.1-0.4-0.3-0.6s-0.6-0.3-1.1-0.6
			c-0.5-0.2-0.9-0.4-1.1-0.5c-0.2-0.1-0.4-0.3-0.5-0.5s-0.2-0.4-0.2-0.7c0-0.5,0.2-0.8,0.6-1.1c0.4-0.3,0.9-0.4,1.5-0.4
			s1.2,0.1,1.8,0.4l-0.3,0.7c-0.6-0.2-1.1-0.3-1.5-0.3s-0.7,0.1-0.9,0.2s-0.3,0.3-0.3,0.5s0,0.3,0.1,0.4s0.2,0.2,0.4,0.3
			s0.5,0.2,1,0.4c0.7,0.2,1.1,0.5,1.4,0.7C59.6,95,59.8,95.3,59.8,95.7z"/>
		<path class="st1" d="M63.2,96.6c0.2,0,0.3,0,0.4,0c0.1,0,0.3,0,0.3-0.1v0.7c-0.1,0-0.2,0.1-0.4,0.1s-0.3,0-0.5,0
			c-1.1,0-1.6-0.6-1.6-1.7v-3.3h-0.8v-0.4l0.8-0.4l0.4-1.2h0.5v1.3h1.6v0.7h-1.6v3.3c0,0.3,0.1,0.6,0.2,0.8
			C62.7,96.5,62.9,96.6,63.2,96.6z"/>
		<path class="st1" d="M65.2,90.1c0-0.2,0-0.3,0.1-0.4s0.2-0.1,0.4-0.1c0.1,0,0.3,0,0.4,0.1s0.1,0.2,0.1,0.4s0,0.3-0.1,0.4
			s-0.2,0.1-0.4,0.1c-0.1,0-0.3,0-0.4-0.1S65.2,90.3,65.2,90.1z M66.1,97.2h-0.9v-5.6h0.9V97.2z"/>
		<path class="st1" d="M70.4,97.3c-0.8,0-1.4-0.2-1.9-0.8c-0.4-0.5-0.7-1.2-0.7-2.1s0.2-1.7,0.7-2.2s1.1-0.8,1.9-0.8
			c0.3,0,0.5,0,0.8,0.1s0.5,0.1,0.6,0.2l-0.3,0.7c-0.2-0.1-0.4-0.1-0.6-0.2c-0.2,0-0.4-0.1-0.6-0.1c-1.1,0-1.7,0.7-1.7,2.2
			c0,0.7,0.1,1.2,0.4,1.6s0.7,0.6,1.2,0.6s0.9-0.1,1.4-0.3V97C71.4,97.2,70.9,97.3,70.4,97.3z"/>
		<path class="st1" d="M76.9,95.7c0,0.5-0.2,0.9-0.6,1.2c-0.4,0.3-0.9,0.4-1.6,0.4s-1.3-0.1-1.7-0.4v-0.8c0.3,0.1,0.6,0.2,0.9,0.3
			c0.3,0.1,0.6,0.1,0.9,0.1c0.4,0,0.8-0.1,1-0.2s0.4-0.4,0.4-0.6s-0.1-0.4-0.3-0.6s-0.6-0.3-1.1-0.6c-0.5-0.2-0.9-0.4-1.1-0.5
			s-0.4-0.3-0.5-0.5S73,93.1,73,92.8c0-0.5,0.2-0.8,0.6-1.1c0.4-0.3,0.9-0.4,1.5-0.4s1.2,0.1,1.8,0.4l-0.3,0.7
			c-0.6-0.2-1.1-0.3-1.5-0.3s-0.7,0.1-0.9,0.2c-0.2,0.1-0.3,0.3-0.3,0.5s0,0.3,0.1,0.4s0.2,0.2,0.4,0.3s0.5,0.2,1,0.4
			c0.7,0.2,1.1,0.5,1.4,0.7C76.8,95,76.9,95.3,76.9,95.7z"/>
	</g>
</g>
<g id="light_green">
	<polygon class="st2" points="15.8,0 29.2,30.1 0,16.9 	"/>
</g>
</svg>
